<svg xmlns="http://www.w3.org/2000/svg" version="1.1" xmlns:xlink="http://www.w3.org/1999/xlink" xmlns:svgjs="http://svgjs.com/svgjs" width="1500" height="700" preserveAspectRatio="none" viewBox="0 0 1500 700"><g mask="url(&quot;#SvgjsMask1049&quot;)" fill="none"><rect width="1500" height="700" x="0" y="0" fill="rgba(5, 30, 59, 1)"></rect><path d="M0,615.973C113.643,609.312,202.19,525.172,297.692,463.217C392.757,401.545,496.527,350.165,557.23,254.479C622.925,150.923,652.394,29.038,650.926,-93.589C649.316,-228.032,630.528,-368.746,548.493,-475.272C464.548,-584.278,333.732,-649.177,199.575,-679.69C70.159,-709.125,-63.726,-687.388,-188.79,-642.961C-308.915,-600.289,-412.466,-526.032,-498.302,-431.782C-585.791,-335.716,-680.524,-228.312,-684.692,-98.444C-688.775,28.777,-585.928,128.626,-519.78,237.375C-461.618,332.995,-411.464,433.588,-320.998,499.482C-227.089,567.884,-115.981,622.771,0,615.973" fill="#031426"></path><path d="M1500 1171.412C1586.375 1151.962 1664.577 1119.266 1742.838 1077.864 1828.346 1032.628 1932.471 1003.629 1978.246 918.408 2024.597 832.114 1994.651 727.811 1983.1109999999999 630.539 1971.282 530.835 1981.818 414.924 1910.17 344.586 1838.816 274.537 1716.274 316.283 1623.932 277.927 1514.594 232.51100000000002 1440.68 80.13699999999994 1324.17 101.17700000000002 1211.004 121.61400000000003 1169.399 266.229 1118.284 369.242 1076.866 452.712 1084.848 547.139 1058.531 636.526 1026.291 746.032 923.598 840.948 946.479 952.784 969.725 1066.405 1067.1190000000001 1163.129 1174.9850000000001 1205.733 1278.403 1246.5810000000001 1391.523 1195.839 1500 1171.412" fill="#072950"></path></g><defs><mask id="SvgjsMask1049"><rect width="1500" height="700" fill="#ffffff"></rect></mask></defs></svg>